<svg xmlns="http://www.w3.org/2000/svg" viewBox="0 0 800 400" width="800" height="400">
  <defs>
    <linearGradient id="g" x1="0" y1="0" x2="1" y2="1">
      <stop offset="0" stop-color="#fda4af"/>
      <stop offset="1" stop-color="#fecdd3"/>
    </linearGradient>
    <radialGradient id="a" cx="0.83" cy="0.32" r=".65">
      <stop offset="0" stop-color="#ffe4e6" stop-opacity=".5"/>
      <stop offset="1" stop-color="#ffe4e6" stop-opacity="0"/>
    </radialGradient>
  </defs>
  <rect width="800" height="400" fill="url(#g)"/>
  <rect width="800" height="400" fill="url(#a)"/>
  <circle cx="395" cy="109" r="35" fill="#fff" opacity="0.054"/>
  <circle cx="268" cy="51" r="101" fill="#fff" opacity="0.096"/>
  <circle cx="558" cy="29" r="67" fill="#fff" opacity="0.053"/>
  <circle cx="747" cy="337" r="105" fill="#fff" opacity="0.084"/>
  <circle cx="317" cy="67" r="103" fill="#fff" opacity="0.064"/>
  <circle cx="780" cy="397" r="79" fill="#fff" opacity="0.042"/>
  <circle cx="426" cy="373" r="59" fill="#fff" opacity="0.084"/>
  <circle cx="526" cy="233" r="35" fill="#fff" opacity="0.054"/>
  <g transform="translate(441,65) scale(8.1)" fill="none" stroke="#000" stroke-width="1.5" stroke-linecap="round" stroke-linejoin="round" opacity="0.18">
    <rect x="2" y="2" width="20" height="20" rx="2.18"/><line x1="7" y1="2" x2="7" y2="22"/><line x1="17" y1="2" x2="17" y2="22"/><line x1="2" y1="12" x2="22" y2="12"/><line x1="2" y1="7" x2="7" y2="7"/><line x1="2" y1="17" x2="7" y2="17"/><line x1="17" y1="7" x2="22" y2="7"/><line x1="17" y1="17" x2="22" y2="17"/>
  </g>
  <circle cx="687" cy="388" r="1.5" fill="#fff" opacity="0.11"/>
  <circle cx="200" cy="28" r="1.5" fill="#fff" opacity="0.15"/>
  <circle cx="135" cy="120" r="3.5" fill="#fff" opacity="0.11"/>
  <circle cx="540" cy="166" r="1.5" fill="#fff" opacity="0.13"/>
  <circle cx="763" cy="381" r="3.5" fill="#fff" opacity="0.09"/>
  <circle cx="412" cy="166" r="2.5" fill="#fff" opacity="0.10"/>
  <circle cx="403" cy="251" r="1.5" fill="#fff" opacity="0.12"/>
  <circle cx="63" cy="2" r="2.5" fill="#fff" opacity="0.14"/>
  <circle cx="636" cy="243" r="3.5" fill="#fff" opacity="0.08"/>
</svg>