<svg xmlns="http://www.w3.org/2000/svg" viewBox="0 0 800 400" width="800" height="400">
  <defs>
    <linearGradient id="g" x1="0" y1="0" x2="1" y2="1">
      <stop offset="0" stop-color="#14532d"/>
      <stop offset="1" stop-color="#15803d"/>
    </linearGradient>
    <radialGradient id="a" cx="0.83" cy="0.27" r=".65">
      <stop offset="0" stop-color="#86efac" stop-opacity=".35"/>
      <stop offset="1" stop-color="#86efac" stop-opacity="0"/>
    </radialGradient>
  </defs>
  <rect width="800" height="400" fill="url(#g)"/>
  <rect width="800" height="400" fill="url(#a)"/>
  <circle cx="681" cy="288" r="121" fill="#fff" opacity="0.045"/>
  <circle cx="41" cy="143" r="115" fill="#fff" opacity="0.075"/>
  <circle cx="687" cy="252" r="42" fill="#fff" opacity="0.043"/>
  <circle cx="426" cy="145" r="49" fill="#fff" opacity="0.039"/>
  <circle cx="244" cy="392" r="76" fill="#fff" opacity="0.042"/>
  <g transform="translate(482,60) scale(7.6)" fill="none" stroke="#fff" stroke-width="1.5" stroke-linecap="round" stroke-linejoin="round" opacity="0.12">
    <path d="M2 15c6.667-6 13.333 0 20-6"/><path d="M2 9c6.667 6 13.333 0 20 6"/><line x1="5" y1="9" x2="5" y2="15"/><line x1="10" y1="11" x2="10" y2="13"/><line x1="14" y1="9" x2="14" y2="15"/><line x1="19" y1="11" x2="19" y2="13"/>
  </g>
  <circle cx="697" cy="37" r="2.5" fill="#fff" opacity="0.14"/>
  <circle cx="318" cy="114" r="2.5" fill="#fff" opacity="0.14"/>
  <circle cx="362" cy="50" r="2.5" fill="#fff" opacity="0.20"/>
  <circle cx="366" cy="212" r="1.5" fill="#fff" opacity="0.17"/>
  <circle cx="52" cy="66" r="3.5" fill="#fff" opacity="0.10"/>
  <circle cx="736" cy="11" r="4.5" fill="#fff" opacity="0.09"/>
  <circle cx="343" cy="34" r="2.5" fill="#fff" opacity="0.19"/>
  <circle cx="689" cy="269" r="2.5" fill="#fff" opacity="0.10"/>
</svg>