<svg xmlns="http://www.w3.org/2000/svg" viewBox="0 0 800 400" width="800" height="400">
  <defs>
    <linearGradient id="g" x1="0" y1="0" x2="1" y2="1">
      <stop offset="0" stop-color="#a8a29e"/>
      <stop offset="1" stop-color="#d6d3d1"/>
    </linearGradient>
    <radialGradient id="a" cx="0.85" cy="0.16" r=".65">
      <stop offset="0" stop-color="#e7e5e4" stop-opacity=".5"/>
      <stop offset="1" stop-color="#e7e5e4" stop-opacity="0"/>
    </radialGradient>
  </defs>
  <rect width="800" height="400" fill="url(#g)"/>
  <rect width="800" height="400" fill="url(#a)"/>
  <circle cx="143" cy="5" r="91" fill="#fff" opacity="0.085"/>
  <circle cx="522" cy="110" r="109" fill="#fff" opacity="0.086"/>
  <circle cx="187" cy="87" r="117" fill="#fff" opacity="0.056"/>
  <circle cx="644" cy="115" r="137" fill="#fff" opacity="0.096"/>
  <circle cx="706" cy="162" r="119" fill="#fff" opacity="0.066"/>
  <circle cx="706" cy="363" r="36" fill="#fff" opacity="0.075"/>
  <circle cx="306" cy="236" r="69" fill="#fff" opacity="0.058"/>
  <circle cx="222" cy="181" r="104" fill="#fff" opacity="0.044"/>
  <g transform="translate(511,57) scale(8.3)" fill="none" stroke="#000" stroke-width="1.5" stroke-linecap="round" stroke-linejoin="round" opacity="0.19">
    <polygon points="12 2 2 7 12 12 22 7"/><polyline points="2 17 12 22 22 17"/><polyline points="2 12 12 17 22 12"/>
  </g>
  <circle cx="706" cy="289" r="3.5" fill="#fff" opacity="0.08"/>
  <circle cx="675" cy="152" r="2.5" fill="#fff" opacity="0.10"/>
  <circle cx="434" cy="196" r="1.5" fill="#fff" opacity="0.15"/>
  <circle cx="114" cy="260" r="1.5" fill="#fff" opacity="0.15"/>
  <circle cx="489" cy="54" r="2.5" fill="#fff" opacity="0.13"/>
  <circle cx="727" cy="361" r="2.5" fill="#fff" opacity="0.08"/>
  <circle cx="614" cy="202" r="2.5" fill="#fff" opacity="0.07"/>
  <circle cx="316" cy="141" r="4.5" fill="#fff" opacity="0.13"/>
  <circle cx="69" cy="297" r="2.5" fill="#fff" opacity="0.11"/>
  <circle cx="275" cy="59" r="1.5" fill="#fff" opacity="0.12"/>
  <circle cx="13" cy="47" r="3.5" fill="#fff" opacity="0.08"/>
  <circle cx="449" cy="124" r="4.5" fill="#fff" opacity="0.08"/>
  <circle cx="730" cy="104" r="3.5" fill="#fff" opacity="0.07"/>
</svg>