<svg xmlns="http://www.w3.org/2000/svg" viewBox="0 0 800 400" width="800" height="400">
  <defs>
    <linearGradient id="g" x1="0" y1="0" x2="1" y2="1">
      <stop offset="0" stop-color="#134e4a"/>
      <stop offset="1" stop-color="#047857"/>
    </linearGradient>
    <radialGradient id="a" cx="0.57" cy="0.44" r=".65">
      <stop offset="0" stop-color="#34d399" stop-opacity=".35"/>
      <stop offset="1" stop-color="#34d399" stop-opacity="0"/>
    </radialGradient>
  </defs>
  <rect width="800" height="400" fill="url(#g)"/>
  <rect width="800" height="400" fill="url(#a)"/>
  <circle cx="742" cy="355" r="64" fill="#fff" opacity="0.069"/>
  <circle cx="237" cy="126" r="143" fill="#fff" opacity="0.057"/>
  <circle cx="497" cy="211" r="147" fill="#fff" opacity="0.037"/>
  <circle cx="363" cy="159" r="119" fill="#fff" opacity="0.072"/>
  <circle cx="162" cy="168" r="57" fill="#fff" opacity="0.057"/>
  <g transform="translate(488,95) scale(8.7)" fill="none" stroke="#fff" stroke-width="1.5" stroke-linecap="round" stroke-linejoin="round" opacity="0.10">
    <path d="M11 20A7 7 0 0 1 4 13C4 6 11 2 18 2a7 7 0 0 1 0 14c-3 0-6-2-7-5"/><path d="M4 20l7-7"/>
  </g>
  <circle cx="507" cy="349" r="2.5" fill="#fff" opacity="0.10"/>
  <circle cx="221" cy="359" r="1.5" fill="#fff" opacity="0.19"/>
  <circle cx="530" cy="353" r="1.5" fill="#fff" opacity="0.08"/>
  <circle cx="270" cy="33" r="2.5" fill="#fff" opacity="0.08"/>
  <circle cx="332" cy="233" r="2.5" fill="#fff" opacity="0.14"/>
  <circle cx="22" cy="0" r="1.5" fill="#fff" opacity="0.18"/>
  <circle cx="377" cy="216" r="3.5" fill="#fff" opacity="0.19"/>
  <circle cx="303" cy="166" r="4.5" fill="#fff" opacity="0.10"/>
  <circle cx="132" cy="290" r="3.5" fill="#fff" opacity="0.14"/>
  <circle cx="745" cy="362" r="4.5" fill="#fff" opacity="0.17"/>
  <circle cx="360" cy="216" r="3.5" fill="#fff" opacity="0.19"/>
  <circle cx="187" cy="62" r="2.5" fill="#fff" opacity="0.18"/>
</svg>