<svg xmlns="http://www.w3.org/2000/svg" viewBox="0 0 800 400" width="800" height="400">
  <defs>
    <linearGradient id="g" x1="0" y1="0" x2="1" y2="1">
      <stop offset="0" stop-color="#c4b5fd"/>
      <stop offset="1" stop-color="#ddd6fe"/>
    </linearGradient>
    <radialGradient id="a" cx="0.71" cy="0.29" r=".65">
      <stop offset="0" stop-color="#ede9fe" stop-opacity=".5"/>
      <stop offset="1" stop-color="#ede9fe" stop-opacity="0"/>
    </radialGradient>
  </defs>
  <rect width="800" height="400" fill="url(#g)"/>
  <rect width="800" height="400" fill="url(#a)"/>
  <circle cx="573" cy="316" r="34" fill="#fff" opacity="0.062"/>
  <circle cx="610" cy="36" r="70" fill="#fff" opacity="0.055"/>
  <circle cx="489" cy="298" r="62" fill="#fff" opacity="0.073"/>
  <circle cx="577" cy="199" r="94" fill="#fff" opacity="0.056"/>
  <circle cx="47" cy="311" r="88" fill="#fff" opacity="0.073"/>
  <circle cx="743" cy="333" r="59" fill="#fff" opacity="0.056"/>
  <circle cx="288" cy="250" r="90" fill="#fff" opacity="0.075"/>
  <circle cx="114" cy="315" r="39" fill="#fff" opacity="0.062"/>
  <g transform="translate(460,96) scale(7.2)" fill="none" stroke="#000" stroke-width="1.5" stroke-linecap="round" stroke-linejoin="round" opacity="0.14">
    <path d="M12 2C8.5 2 6 4.5 6 7c0 1.5.5 2.8 1.4 3.8C6.5 12 6 13.5 6 15c0 3 2.5 5 5 5"/><path d="M12 2c3.5 0 6 2.5 6 5 0 1.5-.5 2.8-1.4 3.8.9 1.2 1.4 2.7 1.4 4.2 0 3-2.5 5-5 5"/><path d="M12 2v20"/><path d="M6 9h4"/><path d="M14 9h4"/><path d="M7 15h3"/><path d="M14 15h3"/>
  </g>
  <circle cx="211" cy="239" r="2.5" fill="#fff" opacity="0.07"/>
  <circle cx="433" cy="376" r="1.5" fill="#fff" opacity="0.12"/>
  <circle cx="336" cy="348" r="1.5" fill="#fff" opacity="0.13"/>
  <circle cx="729" cy="186" r="3.5" fill="#fff" opacity="0.11"/>
  <circle cx="674" cy="143" r="4.5" fill="#fff" opacity="0.07"/>
  <circle cx="256" cy="73" r="2.5" fill="#fff" opacity="0.11"/>
  <circle cx="676" cy="172" r="3.5" fill="#fff" opacity="0.07"/>
  <circle cx="787" cy="357" r="2.5" fill="#fff" opacity="0.09"/>
  <circle cx="487" cy="329" r="4.5" fill="#fff" opacity="0.10"/>
  <circle cx="341" cy="112" r="3.5" fill="#fff" opacity="0.13"/>
</svg>