<svg xmlns="http://www.w3.org/2000/svg" viewBox="0 0 800 400" width="800" height="400">
  <defs>
    <linearGradient id="g" x1="0" y1="0" x2="1" y2="1">
      <stop offset="0" stop-color="#fca5a5"/>
      <stop offset="1" stop-color="#fecaca"/>
    </linearGradient>
    <radialGradient id="a" cx="0.81" cy="0.39" r=".65">
      <stop offset="0" stop-color="#fee2e2" stop-opacity=".5"/>
      <stop offset="1" stop-color="#fee2e2" stop-opacity="0"/>
    </radialGradient>
  </defs>
  <rect width="800" height="400" fill="url(#g)"/>
  <rect width="800" height="400" fill="url(#a)"/>
  <circle cx="436" cy="78" r="57" fill="#fff" opacity="0.069"/>
  <circle cx="256" cy="365" r="70" fill="#fff" opacity="0.063"/>
  <circle cx="635" cy="397" r="85" fill="#fff" opacity="0.097"/>
  <circle cx="724" cy="325" r="114" fill="#fff" opacity="0.092"/>
  <circle cx="241" cy="95" r="72" fill="#fff" opacity="0.091"/>
  <circle cx="109" cy="227" r="94" fill="#fff" opacity="0.066"/>
  <circle cx="171" cy="241" r="59" fill="#fff" opacity="0.074"/>
  <circle cx="395" cy="369" r="98" fill="#fff" opacity="0.073"/>
  <g transform="translate(474,67) scale(8.9)" fill="none" stroke="#000" stroke-width="1.5" stroke-linecap="round" stroke-linejoin="round" opacity="0.16">
    <path d="M12 22s8-4 8-10V5l-8-3-8 3v7c0 6 8 10 8 10z"/>
  </g>
  <circle cx="580" cy="19" r="3.5" fill="#fff" opacity="0.16"/>
  <circle cx="783" cy="184" r="3.5" fill="#fff" opacity="0.08"/>
  <circle cx="158" cy="195" r="1.5" fill="#fff" opacity="0.07"/>
  <circle cx="128" cy="395" r="2.5" fill="#fff" opacity="0.16"/>
  <circle cx="376" cy="75" r="2.5" fill="#fff" opacity="0.13"/>
  <circle cx="549" cy="140" r="2.5" fill="#fff" opacity="0.09"/>
  <circle cx="384" cy="254" r="1.5" fill="#fff" opacity="0.12"/>
  <circle cx="337" cy="215" r="4.5" fill="#fff" opacity="0.15"/>
  <circle cx="303" cy="358" r="4.5" fill="#fff" opacity="0.09"/>
  <circle cx="252" cy="289" r="3.5" fill="#fff" opacity="0.14"/>
  <circle cx="395" cy="309" r="4.5" fill="#fff" opacity="0.15"/>
  <circle cx="254" cy="112" r="2.5" fill="#fff" opacity="0.09"/>
  <circle cx="352" cy="232" r="4.5" fill="#fff" opacity="0.11"/>
  <circle cx="722" cy="292" r="1.5" fill="#fff" opacity="0.07"/>
  <circle cx="111" cy="141" r="1.5" fill="#fff" opacity="0.07"/>
</svg>