<svg xmlns="http://www.w3.org/2000/svg" viewBox="0 0 800 400" width="800" height="400">
  <defs>
    <linearGradient id="g" x1="0" y1="0" x2="1" y2="1">
      <stop offset="0" stop-color="#67e8f9"/>
      <stop offset="1" stop-color="#a5f3fc"/>
    </linearGradient>
    <radialGradient id="a" cx="0.82" cy="0.26" r=".65">
      <stop offset="0" stop-color="#cffafe" stop-opacity=".5"/>
      <stop offset="1" stop-color="#cffafe" stop-opacity="0"/>
    </radialGradient>
  </defs>
  <rect width="800" height="400" fill="url(#g)"/>
  <rect width="800" height="400" fill="url(#a)"/>
  <circle cx="291" cy="230" r="96" fill="#fff" opacity="0.065"/>
  <circle cx="228" cy="258" r="130" fill="#fff" opacity="0.052"/>
  <circle cx="64" cy="69" r="139" fill="#fff" opacity="0.054"/>
  <circle cx="265" cy="219" r="135" fill="#fff" opacity="0.080"/>
  <circle cx="552" cy="3" r="82" fill="#fff" opacity="0.093"/>
  <circle cx="291" cy="42" r="116" fill="#fff" opacity="0.070"/>
  <circle cx="461" cy="18" r="94" fill="#fff" opacity="0.086"/>
  <g transform="translate(480,67) scale(7.5)" fill="none" stroke="#000" stroke-width="1.5" stroke-linecap="round" stroke-linejoin="round" opacity="0.18">
    <path d="M17 21v-2a4 4 0 0 0-4-4H5a4 4 0 0 0-4 4v2"/><circle cx="9" cy="7" r="4"/><path d="M23 21v-2a4 4 0 0 0-3-3.87"/><path d="M16 3.13a4 4 0 0 1 0 7.75"/>
  </g>
  <circle cx="785" cy="208" r="2.5" fill="#fff" opacity="0.11"/>
  <circle cx="636" cy="50" r="2.5" fill="#fff" opacity="0.11"/>
  <circle cx="621" cy="305" r="3.5" fill="#fff" opacity="0.12"/>
  <circle cx="186" cy="133" r="2.5" fill="#fff" opacity="0.10"/>
  <circle cx="299" cy="358" r="1.5" fill="#fff" opacity="0.13"/>
  <circle cx="438" cy="193" r="3.5" fill="#fff" opacity="0.14"/>
  <circle cx="695" cy="316" r="2.5" fill="#fff" opacity="0.13"/>
  <circle cx="714" cy="220" r="3.5" fill="#fff" opacity="0.13"/>
  <circle cx="784" cy="294" r="1.5" fill="#fff" opacity="0.08"/>
  <circle cx="21" cy="180" r="1.5" fill="#fff" opacity="0.11"/>
  <circle cx="324" cy="117" r="2.5" fill="#fff" opacity="0.08"/>
  <circle cx="411" cy="300" r="4.5" fill="#fff" opacity="0.09"/>
  <circle cx="707" cy="176" r="3.5" fill="#fff" opacity="0.08"/>
  <circle cx="723" cy="273" r="3.5" fill="#fff" opacity="0.14"/>
</svg>