<svg xmlns="http://www.w3.org/2000/svg" viewBox="0 0 800 400" width="800" height="400">
  <defs>
    <linearGradient id="g" x1="0" y1="0" x2="1" y2="1">
      <stop offset="0" stop-color="#93c5fd"/>
      <stop offset="1" stop-color="#bfdbfe"/>
    </linearGradient>
    <radialGradient id="a" cx="0.74" cy="0.26" r=".65">
      <stop offset="0" stop-color="#dbeafe" stop-opacity=".5"/>
      <stop offset="1" stop-color="#dbeafe" stop-opacity="0"/>
    </radialGradient>
  </defs>
  <rect width="800" height="400" fill="url(#g)"/>
  <rect width="800" height="400" fill="url(#a)"/>
  <circle cx="605" cy="33" r="74" fill="#fff" opacity="0.070"/>
  <circle cx="40" cy="105" r="146" fill="#fff" opacity="0.099"/>
  <circle cx="469" cy="31" r="99" fill="#fff" opacity="0.087"/>
  <circle cx="511" cy="5" r="77" fill="#fff" opacity="0.090"/>
  <circle cx="288" cy="218" r="123" fill="#fff" opacity="0.097"/>
  <circle cx="586" cy="30" r="149" fill="#fff" opacity="0.068"/>
  <g transform="translate(483,106) scale(8.4)" fill="none" stroke="#000" stroke-width="1.5" stroke-linecap="round" stroke-linejoin="round" opacity="0.13">
    <polyline points="23 6 13.5 15.5 8.5 10.5 1 18"/><polyline points="17 6 23 6 23 12"/>
  </g>
  <circle cx="728" cy="233" r="4.5" fill="#fff" opacity="0.11"/>
  <circle cx="659" cy="79" r="2.5" fill="#fff" opacity="0.06"/>
  <circle cx="558" cy="66" r="3.5" fill="#fff" opacity="0.08"/>
  <circle cx="579" cy="322" r="3.5" fill="#fff" opacity="0.09"/>
  <circle cx="57" cy="30" r="4.5" fill="#fff" opacity="0.14"/>
  <circle cx="349" cy="160" r="1.5" fill="#fff" opacity="0.12"/>
  <circle cx="741" cy="201" r="2.5" fill="#fff" opacity="0.07"/>
  <circle cx="758" cy="398" r="2.5" fill="#fff" opacity="0.12"/>
  <circle cx="547" cy="255" r="2.5" fill="#fff" opacity="0.10"/>
  <circle cx="533" cy="100" r="2.5" fill="#fff" opacity="0.11"/>
  <circle cx="551" cy="343" r="4.5" fill="#fff" opacity="0.14"/>
  <circle cx="6" cy="338" r="2.5" fill="#fff" opacity="0.15"/>
  <circle cx="345" cy="17" r="3.5" fill="#fff" opacity="0.06"/>
  <circle cx="503" cy="107" r="4.5" fill="#fff" opacity="0.08"/>
</svg>