<svg xmlns="http://www.w3.org/2000/svg" viewBox="0 0 800 400" width="800" height="400">
  <defs>
    <linearGradient id="g" x1="0" y1="0" x2="1" y2="1">
      <stop offset="0" stop-color="#a5b4fc"/>
      <stop offset="1" stop-color="#c7d2fe"/>
    </linearGradient>
    <radialGradient id="a" cx="0.65" cy="0.23" r=".65">
      <stop offset="0" stop-color="#e0e7ff" stop-opacity=".5"/>
      <stop offset="1" stop-color="#e0e7ff" stop-opacity="0"/>
    </radialGradient>
  </defs>
  <rect width="800" height="400" fill="url(#g)"/>
  <rect width="800" height="400" fill="url(#a)"/>
  <circle cx="52" cy="59" r="81" fill="#fff" opacity="0.100"/>
  <circle cx="444" cy="365" r="47" fill="#fff" opacity="0.041"/>
  <circle cx="124" cy="55" r="94" fill="#fff" opacity="0.085"/>
  <circle cx="587" cy="29" r="87" fill="#fff" opacity="0.044"/>
  <circle cx="364" cy="383" r="57" fill="#fff" opacity="0.092"/>
  <circle cx="485" cy="165" r="95" fill="#fff" opacity="0.092"/>
  <g transform="translate(442,88) scale(7.9)" fill="none" stroke="#000" stroke-width="1.5" stroke-linecap="round" stroke-linejoin="round" opacity="0.14">
    <path d="M2 20h20L18 8l-4 5-2-7-2 7-4-5z"/><line x1="2" y1="20" x2="22" y2="20"/>
  </g>
  <circle cx="779" cy="130" r="3.5" fill="#fff" opacity="0.07"/>
  <circle cx="439" cy="210" r="3.5" fill="#fff" opacity="0.14"/>
  <circle cx="478" cy="155" r="3.5" fill="#fff" opacity="0.08"/>
  <circle cx="350" cy="319" r="3.5" fill="#fff" opacity="0.14"/>
  <circle cx="729" cy="395" r="3.5" fill="#fff" opacity="0.10"/>
  <circle cx="106" cy="19" r="3.5" fill="#fff" opacity="0.07"/>
  <circle cx="435" cy="13" r="2.5" fill="#fff" opacity="0.10"/>
  <circle cx="130" cy="58" r="3.5" fill="#fff" opacity="0.07"/>
  <circle cx="618" cy="114" r="2.5" fill="#fff" opacity="0.13"/>
  <circle cx="345" cy="257" r="1.5" fill="#fff" opacity="0.08"/>
  <circle cx="427" cy="327" r="3.5" fill="#fff" opacity="0.09"/>
  <circle cx="335" cy="321" r="2.5" fill="#fff" opacity="0.14"/>
  <circle cx="191" cy="189" r="3.5" fill="#fff" opacity="0.13"/>
</svg>