<svg xmlns="http://www.w3.org/2000/svg" viewBox="0 0 800 400" width="800" height="400">
  <defs>
    <linearGradient id="g" x1="0" y1="0" x2="1" y2="1">
      <stop offset="0" stop-color="#d8b4fe"/>
      <stop offset="1" stop-color="#e9d5ff"/>
    </linearGradient>
    <radialGradient id="a" cx="0.68" cy="0.40" r=".65">
      <stop offset="0" stop-color="#f3e8ff" stop-opacity=".5"/>
      <stop offset="1" stop-color="#f3e8ff" stop-opacity="0"/>
    </radialGradient>
  </defs>
  <rect width="800" height="400" fill="url(#g)"/>
  <rect width="800" height="400" fill="url(#a)"/>
  <circle cx="48" cy="358" r="132" fill="#fff" opacity="0.046"/>
  <circle cx="134" cy="307" r="83" fill="#fff" opacity="0.052"/>
  <circle cx="324" cy="41" r="46" fill="#fff" opacity="0.080"/>
  <circle cx="722" cy="141" r="118" fill="#fff" opacity="0.062"/>
  <circle cx="250" cy="190" r="39" fill="#fff" opacity="0.067"/>
  <circle cx="620" cy="375" r="63" fill="#fff" opacity="0.073"/>
  <circle cx="738" cy="329" r="93" fill="#fff" opacity="0.096"/>
  <g transform="translate(473,59) scale(8.7)" fill="none" stroke="#000" stroke-width="1.5" stroke-linecap="round" stroke-linejoin="round" opacity="0.16">
    <path d="M9 18V5l12-2v13"/><circle cx="6" cy="18" r="3"/><circle cx="18" cy="16" r="3"/>
  </g>
  <circle cx="578" cy="349" r="2.5" fill="#fff" opacity="0.11"/>
  <circle cx="472" cy="113" r="4.5" fill="#fff" opacity="0.11"/>
  <circle cx="366" cy="117" r="1.5" fill="#fff" opacity="0.08"/>
  <circle cx="122" cy="126" r="2.5" fill="#fff" opacity="0.08"/>
  <circle cx="468" cy="87" r="3.5" fill="#fff" opacity="0.13"/>
  <circle cx="761" cy="284" r="1.5" fill="#fff" opacity="0.08"/>
  <circle cx="483" cy="322" r="1.5" fill="#fff" opacity="0.10"/>
  <circle cx="684" cy="336" r="1.5" fill="#fff" opacity="0.15"/>
  <circle cx="93" cy="285" r="2.5" fill="#fff" opacity="0.12"/>
</svg>