<svg xmlns="http://www.w3.org/2000/svg" viewBox="0 0 800 400" width="800" height="400">
  <defs>
    <linearGradient id="g" x1="0" y1="0" x2="1" y2="1">
      <stop offset="0" stop-color="#9ca3af"/>
      <stop offset="1" stop-color="#d1d5db"/>
    </linearGradient>
    <radialGradient id="a" cx="0.77" cy="0.31" r=".65">
      <stop offset="0" stop-color="#e5e7eb" stop-opacity=".5"/>
      <stop offset="1" stop-color="#e5e7eb" stop-opacity="0"/>
    </radialGradient>
  </defs>
  <rect width="800" height="400" fill="url(#g)"/>
  <rect width="800" height="400" fill="url(#a)"/>
  <circle cx="140" cy="249" r="91" fill="#fff" opacity="0.046"/>
  <circle cx="452" cy="55" r="101" fill="#fff" opacity="0.092"/>
  <circle cx="726" cy="4" r="148" fill="#fff" opacity="0.087"/>
  <circle cx="215" cy="257" r="105" fill="#fff" opacity="0.094"/>
  <circle cx="689" cy="68" r="106" fill="#fff" opacity="0.096"/>
  <circle cx="177" cy="108" r="65" fill="#fff" opacity="0.086"/>
  <g transform="translate(455,99) scale(8.6)" fill="none" stroke="#000" stroke-width="1.5" stroke-linecap="round" stroke-linejoin="round" opacity="0.17">
    <circle cx="12" cy="12" r="3"/><path d="M19.4 15a1.65 1.65 0 0 0 .33 1.82l.06.06a2 2 0 0 1-2.83 2.83l-.06-.06a1.65 1.65 0 0 0-1.82-.33 1.65 1.65 0 0 0-1 1.51V21a2 2 0 0 1-4 0v-.09a1.65 1.65 0 0 0-1.08-1.51 1.65 1.65 0 0 0-1.82.33l-.06.06a2 2 0 0 1-2.83-2.83l.06-.06a1.65 1.65 0 0 0 .33-1.82 1.65 1.65 0 0 0-1.51-1H3a2 2 0 0 1 0-4h.09a1.65 1.65 0 0 0 1.51-1.08 1.65 1.65 0 0 0-.33-1.82l-.06-.06a2 2 0 0 1 2.83-2.83l.06.06a1.65 1.65 0 0 0 1.82.33H9a1.65 1.65 0 0 0 1-1.51V3a2 2 0 0 1 4 0v.09a1.65 1.65 0 0 0 1 1.51 1.65 1.65 0 0 0 1.82-.33l.06-.06a2 2 0 0 1 2.83 2.83l-.06.06a1.65 1.65 0 0 0-.33 1.82V9c.26.604.852.997 1.51 1H21a2 2 0 0 1 0 4h-.09c-.658.003-1.25.396-1.51 1z"/>
  </g>
  <circle cx="486" cy="314" r="3.5" fill="#fff" opacity="0.11"/>
  <circle cx="535" cy="289" r="3.5" fill="#fff" opacity="0.08"/>
  <circle cx="89" cy="362" r="2.5" fill="#fff" opacity="0.14"/>
  <circle cx="500" cy="24" r="2.5" fill="#fff" opacity="0.07"/>
  <circle cx="352" cy="229" r="1.5" fill="#fff" opacity="0.16"/>
  <circle cx="11" cy="37" r="4.5" fill="#fff" opacity="0.11"/>
  <circle cx="60" cy="204" r="3.5" fill="#fff" opacity="0.12"/>
  <circle cx="552" cy="11" r="4.5" fill="#fff" opacity="0.16"/>
  <circle cx="333" cy="225" r="2.5" fill="#fff" opacity="0.15"/>
  <circle cx="221" cy="307" r="1.5" fill="#fff" opacity="0.11"/>
</svg>