<svg xmlns="http://www.w3.org/2000/svg" viewBox="0 0 800 400" width="800" height="400">
  <defs>
    <linearGradient id="g" x1="0" y1="0" x2="1" y2="1">
      <stop offset="0" stop-color="#c4b5fd"/>
      <stop offset="1" stop-color="#ddd6fe"/>
    </linearGradient>
    <radialGradient id="a" cx="0.75" cy="0.32" r=".65">
      <stop offset="0" stop-color="#ede9fe" stop-opacity=".5"/>
      <stop offset="1" stop-color="#ede9fe" stop-opacity="0"/>
    </radialGradient>
  </defs>
  <rect width="800" height="400" fill="url(#g)"/>
  <rect width="800" height="400" fill="url(#a)"/>
  <circle cx="509" cy="191" r="97" fill="#fff" opacity="0.091"/>
  <circle cx="393" cy="171" r="116" fill="#fff" opacity="0.050"/>
  <circle cx="615" cy="92" r="72" fill="#fff" opacity="0.071"/>
  <circle cx="110" cy="185" r="42" fill="#fff" opacity="0.072"/>
  <circle cx="567" cy="182" r="118" fill="#fff" opacity="0.049"/>
  <g transform="translate(452,67) scale(7.3)" fill="none" stroke="#000" stroke-width="1.5" stroke-linecap="round" stroke-linejoin="round" opacity="0.15">
    <line x1="12" y1="2" x2="12" y2="22"/><line x1="4" y1="8" x2="20" y2="8"/>
  </g>
  <circle cx="500" cy="317" r="1.5" fill="#fff" opacity="0.09"/>
  <circle cx="659" cy="167" r="2.5" fill="#fff" opacity="0.08"/>
  <circle cx="420" cy="381" r="4.5" fill="#fff" opacity="0.14"/>
  <circle cx="320" cy="226" r="2.5" fill="#fff" opacity="0.12"/>
  <circle cx="611" cy="264" r="3.5" fill="#fff" opacity="0.12"/>
  <circle cx="700" cy="292" r="4.5" fill="#fff" opacity="0.16"/>
  <circle cx="605" cy="215" r="3.5" fill="#fff" opacity="0.09"/>
  <circle cx="272" cy="254" r="3.5" fill="#fff" opacity="0.08"/>
  <circle cx="772" cy="295" r="1.5" fill="#fff" opacity="0.13"/>
  <circle cx="746" cy="325" r="2.5" fill="#fff" opacity="0.13"/>
  <circle cx="534" cy="296" r="3.5" fill="#fff" opacity="0.09"/>
  <circle cx="637" cy="271" r="3.5" fill="#fff" opacity="0.11"/>
  <circle cx="686" cy="74" r="4.5" fill="#fff" opacity="0.11"/>
  <circle cx="264" cy="43" r="4.5" fill="#fff" opacity="0.10"/>
</svg>