<svg xmlns="http://www.w3.org/2000/svg" viewBox="0 0 800 400" width="800" height="400">
  <defs>
    <linearGradient id="g" x1="0" y1="0" x2="1" y2="1">
      <stop offset="0" stop-color="#7dd3fc"/>
      <stop offset="1" stop-color="#bae6fd"/>
    </linearGradient>
    <radialGradient id="a" cx="0.85" cy="0.34" r=".65">
      <stop offset="0" stop-color="#e0f2fe" stop-opacity=".5"/>
      <stop offset="1" stop-color="#e0f2fe" stop-opacity="0"/>
    </radialGradient>
  </defs>
  <rect width="800" height="400" fill="url(#g)"/>
  <rect width="800" height="400" fill="url(#a)"/>
  <circle cx="387" cy="83" r="95" fill="#fff" opacity="0.051"/>
  <circle cx="88" cy="281" r="65" fill="#fff" opacity="0.050"/>
  <circle cx="235" cy="118" r="128" fill="#fff" opacity="0.057"/>
  <circle cx="114" cy="186" r="56" fill="#fff" opacity="0.061"/>
  <circle cx="509" cy="282" r="147" fill="#fff" opacity="0.077"/>
  <circle cx="149" cy="387" r="127" fill="#fff" opacity="0.090"/>
  <circle cx="313" cy="304" r="60" fill="#fff" opacity="0.048"/>
  <circle cx="350" cy="382" r="66" fill="#fff" opacity="0.098"/>
  <g transform="translate(502,85) scale(7.5)" fill="none" stroke="#000" stroke-width="1.5" stroke-linecap="round" stroke-linejoin="round" opacity="0.18">
    <polyline points="23 6 13.5 15.5 8.5 10.5 1 18"/><polyline points="17 6 23 6 23 12"/>
  </g>
  <circle cx="559" cy="220" r="4.5" fill="#fff" opacity="0.09"/>
  <circle cx="357" cy="209" r="1.5" fill="#fff" opacity="0.12"/>
  <circle cx="345" cy="342" r="3.5" fill="#fff" opacity="0.13"/>
  <circle cx="650" cy="284" r="3.5" fill="#fff" opacity="0.14"/>
  <circle cx="141" cy="2" r="3.5" fill="#fff" opacity="0.15"/>
  <circle cx="756" cy="96" r="1.5" fill="#fff" opacity="0.07"/>
  <circle cx="471" cy="44" r="4.5" fill="#fff" opacity="0.15"/>
  <circle cx="33" cy="309" r="2.5" fill="#fff" opacity="0.06"/>
</svg>