<svg xmlns="http://www.w3.org/2000/svg" viewBox="0 0 800 400" width="800" height="400">
  <defs>
    <linearGradient id="g" x1="0" y1="0" x2="1" y2="1">
      <stop offset="0" stop-color="#4c1d95"/>
      <stop offset="1" stop-color="#7c3aed"/>
    </linearGradient>
    <radialGradient id="a" cx="0.77" cy="0.29" r=".65">
      <stop offset="0" stop-color="#c4b5fd" stop-opacity=".35"/>
      <stop offset="1" stop-color="#c4b5fd" stop-opacity="0"/>
    </radialGradient>
  </defs>
  <rect width="800" height="400" fill="url(#g)"/>
  <rect width="800" height="400" fill="url(#a)"/>
  <circle cx="583" cy="299" r="123" fill="#fff" opacity="0.078"/>
  <circle cx="208" cy="361" r="136" fill="#fff" opacity="0.037"/>
  <circle cx="462" cy="83" r="145" fill="#fff" opacity="0.040"/>
  <circle cx="610" cy="12" r="144" fill="#fff" opacity="0.070"/>
  <circle cx="317" cy="225" r="65" fill="#fff" opacity="0.080"/>
  <g transform="translate(510,87) scale(7.9)" fill="none" stroke="#fff" stroke-width="1.5" stroke-linecap="round" stroke-linejoin="round" opacity="0.13">
    <path d="M1 12s4-8 11-8 11 8 11 8-4 8-11 8-11-8-11-8z"/><circle cx="12" cy="12" r="3"/>
  </g>
  <circle cx="465" cy="205" r="4.5" fill="#fff" opacity="0.09"/>
  <circle cx="611" cy="63" r="3.5" fill="#fff" opacity="0.16"/>
  <circle cx="183" cy="365" r="4.5" fill="#fff" opacity="0.17"/>
  <circle cx="479" cy="285" r="2.5" fill="#fff" opacity="0.17"/>
  <circle cx="399" cy="23" r="3.5" fill="#fff" opacity="0.17"/>
  <circle cx="123" cy="26" r="3.5" fill="#fff" opacity="0.21"/>
  <circle cx="751" cy="212" r="2.5" fill="#fff" opacity="0.17"/>
  <circle cx="293" cy="136" r="3.5" fill="#fff" opacity="0.19"/>
  <circle cx="385" cy="295" r="1.5" fill="#fff" opacity="0.17"/>
  <circle cx="117" cy="2" r="1.5" fill="#fff" opacity="0.16"/>
</svg>