<svg xmlns="http://www.w3.org/2000/svg" viewBox="0 0 800 400" width="800" height="400">
  <defs>
    <linearGradient id="g" x1="0" y1="0" x2="1" y2="1">
      <stop offset="0" stop-color="#78350f"/>
      <stop offset="1" stop-color="#a16207"/>
    </linearGradient>
    <radialGradient id="a" cx="0.55" cy="0.26" r=".65">
      <stop offset="0" stop-color="#fde047" stop-opacity=".35"/>
      <stop offset="1" stop-color="#fde047" stop-opacity="0"/>
    </radialGradient>
  </defs>
  <rect width="800" height="400" fill="url(#g)"/>
  <rect width="800" height="400" fill="url(#a)"/>
  <circle cx="530" cy="274" r="142" fill="#fff" opacity="0.041"/>
  <circle cx="181" cy="128" r="43" fill="#fff" opacity="0.044"/>
  <circle cx="505" cy="113" r="33" fill="#fff" opacity="0.074"/>
  <circle cx="344" cy="121" r="138" fill="#fff" opacity="0.049"/>
  <circle cx="154" cy="308" r="69" fill="#fff" opacity="0.046"/>
  <circle cx="633" cy="53" r="128" fill="#fff" opacity="0.072"/>
  <circle cx="584" cy="306" r="104" fill="#fff" opacity="0.058"/>
  <circle cx="187" cy="336" r="65" fill="#fff" opacity="0.046"/>
  <g transform="translate(505,99) scale(7.3)" fill="none" stroke="#fff" stroke-width="1.5" stroke-linecap="round" stroke-linejoin="round" opacity="0.11">
    <path d="M12 20h9"/><path d="M16.5 3.5a2.12 2.12 0 0 1 3 3L7 19l-4 1 1-4Z"/>
  </g>
  <circle cx="755" cy="51" r="3.5" fill="#fff" opacity="0.21"/>
  <circle cx="432" cy="106" r="2.5" fill="#fff" opacity="0.17"/>
  <circle cx="326" cy="168" r="1.5" fill="#fff" opacity="0.18"/>
  <circle cx="681" cy="90" r="3.5" fill="#fff" opacity="0.20"/>
  <circle cx="130" cy="239" r="1.5" fill="#fff" opacity="0.13"/>
  <circle cx="649" cy="62" r="4.5" fill="#fff" opacity="0.20"/>
  <circle cx="622" cy="387" r="2.5" fill="#fff" opacity="0.21"/>
  <circle cx="690" cy="272" r="4.5" fill="#fff" opacity="0.09"/>
  <circle cx="751" cy="151" r="2.5" fill="#fff" opacity="0.20"/>
</svg>